<svg width="97" height="97" viewBox="0 0 97 97" fill="none" xmlns="http://www.w3.org/2000/svg">
<g clip-path="url(#clip0_1922_2)">
<path d="M97 0H0V97H97V0Z" fill="#05E448"/>
<path d="M45.6338 67.0831C41.4253 67.0831 38.7481 64.53 38.7481 61.2918C38.7481 47.4342 75.1893 44.66 75.1893 29.9434C75.1893 20.9657 64.7897 17.0962 51.5145 17.0962C43.4392 17.0962 34.3087 18.5908 25.8289 21.2652V38.8214C38.3253 29.7195 52.2096 25.8234 61.153 25.8234C66.7766 25.8234 70.5923 27.3923 70.5923 30.2037C70.5923 41.7863 20.333 39.951 20.333 64.979C20.333 74.5723 26.9294 80.0686 36.2099 80.0686C50.2474 80.0686 60.8653 66.4268 68.8088 49.7977L70.4181 50.3757C66.2346 60.5376 57.5774 71.6801 55.8912 78.8428H73.9635V41.7867H69.7897C63.7312 54.9521 54.8529 67.0831 45.6338 67.0831Z" fill="black"/>
</g>
<defs>
<clipPath id="clip0_1922_2">
<rect width="97" height="97" fill="white"/>
</clipPath>
</defs>
</svg>
