<svg width="115" height="115" viewBox="0 0 115 115" fill="none" xmlns="http://www.w3.org/2000/svg">
<g clip-path="url(#clip0_1926_8)">
<path d="M102.063 91.0417C100.517 92.5651 98.575 93.6242 96.4573 94.0986C94.3396 94.5729 92.1313 94.4435 90.0835 93.725L78.8231 104.985C78.6711 105.143 78.4888 105.269 78.287 105.355C78.0853 105.441 77.8683 105.485 77.6491 105.485C77.4299 105.485 77.2129 105.441 77.0112 105.355C76.8095 105.269 76.6272 105.143 76.4752 104.985L71.6835 100.194C71.3871 99.8747 71.2224 99.4553 71.2224 99.0198C71.2224 98.5843 71.3871 98.1649 71.6835 97.8458L82.9918 86.5854C82.2046 84.4009 82.1001 82.0287 82.6921 79.7834C83.2841 77.5381 84.5446 75.5258 86.3065 74.0134C88.0684 72.501 90.2484 71.5599 92.5575 71.3149C94.8666 71.0699 97.1955 71.5326 99.2356 72.6417L91.6168 80.5L96.4085 85.2917L104.171 77.5292C105.32 79.7086 105.735 82.2004 105.355 84.6347C104.975 87.0689 103.821 89.3158 102.063 91.0417ZM105.417 38.3333V65.9333C101.876 63.5534 97.7043 62.2853 93.4377 62.2917C91.3443 62.2981 89.2627 62.6047 87.2564 63.2021V44.5146H79.8293V67.0833C77.3383 69.11 75.3315 71.6675 73.9553 74.5691C72.5792 77.4706 71.8685 80.6428 71.8752 83.8542C71.8261 84.652 71.8261 85.4521 71.8752 86.25H19.1668C16.6252 86.25 14.1876 85.2403 12.3904 83.4431C10.5932 81.6459 9.5835 79.2083 9.5835 76.6667V38.3333C9.5835 35.7917 10.5932 33.3541 12.3904 31.5569C14.1876 29.7597 16.6252 28.75 19.1668 28.75H95.8335C98.3752 28.75 100.813 29.7597 102.61 31.5569C104.407 33.3541 105.417 35.7917 105.417 38.3333ZM52.7085 71.875L43.5564 44.4188H33.5418L24.7731 71.875H32.9189L34.3085 66.7479H43.1252L44.5147 71.875H52.7085ZM75.5647 53.2354C75.6431 52.0281 75.4466 50.8187 74.9901 49.6983C74.5336 48.5779 73.829 47.5755 72.9293 46.7667C70.6937 45.1132 67.9402 44.3143 65.1668 44.5146H55.5835V71.875H62.9627V62.8187H65.071C66.7049 62.8467 68.3298 62.5705 69.8627 62.0042C71.0762 61.5487 72.1729 60.8285 73.0731 59.8958C73.8738 59.0181 74.4638 57.9693 74.7981 56.8292C75.2151 55.6756 75.4417 54.4618 75.4689 53.2354H75.5647ZM40.5856 56.2062L40.0106 54.0979L39.2918 51.3187C39.2918 50.3125 38.9085 49.5458 38.7647 48.9229C38.6458 49.6975 38.4858 50.4652 38.2856 51.2229C38.2856 52.1333 37.9022 53.0438 37.6627 53.9542C37.4231 54.8646 37.2793 55.5833 37.0877 56.2062L35.9377 60.6625H41.6397L40.5856 56.2062ZM67.371 51.4146C67.0544 51.1135 66.6762 50.8848 66.2626 50.7441C65.8489 50.6035 65.4097 50.5543 64.9752 50.6H63.0585V56.8771H64.5439C65.1519 56.8915 65.7561 56.7772 66.3168 56.5417C66.8443 56.3285 67.2952 55.9611 67.6106 55.4875C67.9808 54.8833 68.1642 54.1831 68.1377 53.475C68.1377 53.059 68.0428 52.6486 67.8601 52.2749C67.6774 51.9012 67.4118 51.5742 67.0835 51.3187L67.371 51.4146Z" fill="#05E448"/>
</g>
<defs>
<clipPath id="clip0_1926_8">
<rect width="115" height="115" fill="white"/>
</clipPath>
</defs>
</svg>
