<svg width="95" height="83" viewBox="0 0 95 83" fill="none" xmlns="http://www.w3.org/2000/svg">
<path fill-rule="evenodd" clip-rule="evenodd" d="M72.0161 36.8887C84.71 36.8887 95 47.2107 95 59.9441C95 62.4907 92.942 64.5552 90.4032 64.5552H59.0144C60.3383 68.3088 63.2459 71.3911 67.0952 72.8662C72.4366 74.9129 78.4829 73.441 82.2945 69.1663C83.9874 67.2684 86.8931 67.1055 88.7851 68.8036C90.6771 70.5017 90.8397 73.4165 89.1469 75.3144C82.7935 82.4388 72.7166 84.892 63.8148 81.4816C54.913 78.0707 49.0323 69.5032 49.0323 59.9441C49.0323 47.2107 59.3222 36.8887 72.0161 36.8887ZM72.0161 46.1108C66.0115 46.1108 60.9037 49.9601 59.0106 55.333H85.0216C83.1286 49.9601 78.0208 46.1108 72.0161 46.1108Z" fill="#05E448"/>
<path fill-rule="evenodd" clip-rule="evenodd" d="M22.9839 0C35.6778 0 45.9677 10.3223 45.9677 23.0554C45.9677 30.5975 42.3576 37.2935 36.7763 41.4998C42.3576 45.7061 45.9677 52.402 45.9677 59.9441C45.9677 72.6775 35.6778 82.9995 22.9839 82.9995H4.59677C2.05805 82.9995 0 80.9351 0 78.3884V4.61108C0 2.06445 2.05805 0 4.59677 0H22.9839ZM9.19355 73.7774H22.9839C30.6003 73.7774 36.7742 67.5843 36.7742 59.9441C36.7742 52.3039 30.6003 46.1108 22.9839 46.1108H9.19355V73.7774ZM9.19355 36.8887H22.9839C30.6003 36.8887 36.7742 30.6956 36.7742 23.0554C36.7742 15.4155 30.6003 9.22217 22.9839 9.22217H9.19355V36.8887Z" fill="#05E448"/>
<path d="M84.2742 24.5925C86.8128 24.5925 88.871 26.6569 88.871 29.2035C88.871 31.7501 86.8128 33.8146 84.2742 33.8146H59.7581C57.2194 33.8146 55.1613 31.7501 55.1613 29.2035C55.1613 26.6569 57.2194 24.5925 59.7581 24.5925H84.2742Z" fill="#05E448"/>
</svg>
