<svg width="100" height="100" viewBox="0 0 100 100" fill="none" xmlns="http://www.w3.org/2000/svg">
<path d="M50 100C77.6142 100 100 77.6142 100 50C100 22.3858 77.6142 0 50 0C22.3858 0 0 22.3858 0 50C0 77.6142 22.3858 100 50 100Z" fill="#05E448"/>
<path d="M71.5863 60.2569C71.1736 60.2569 70.8105 60.6053 70.4326 61.3664C66.1652 70.0195 58.7947 76.1422 50.2655 76.1422C40.4034 76.1422 34.2961 67.2395 34.2961 54.9406C34.2961 34.1072 45.9039 22.0618 56.0994 22.0618C60.8636 22.0618 63.7731 25.0557 63.7731 29.8202C63.7731 35.4749 60.5605 38.4689 60.5605 40.4632C60.5605 41.3584 61.1173 41.9004 62.2215 41.9004C66.6578 41.9004 71.8647 36.8028 71.8647 29.6014C71.8647 22.6188 65.7873 17.4863 55.5921 17.4863C38.7423 17.4863 23.7676 33.1076 23.7676 54.7216C23.7676 71.4522 33.3214 82.508 48.0624 82.508C63.7084 82.508 72.7552 66.9411 72.7552 61.8885C72.7552 60.7695 72.1831 60.2569 71.5863 60.2569Z" fill="white"/>
</svg>
