<svg width="140" height="35" viewBox="0 0 140 35" fill="none" xmlns="http://www.w3.org/2000/svg">
<g clip-path="url(#clip0_9_57)">
<path d="M18.0542 9.60162e-07H18.3867C19.555 0.23909 20.1396 0.782475 20.1405 1.63016V15.0752L20.2139 17.3749C20.2139 19.2684 19.4262 21.2392 17.8507 23.2874C15.6231 25.6348 13.1121 26.8085 10.3176 26.8085H9.76355C7.0309 26.8085 4.4967 25.5688 2.16094 23.0893C0.720314 21.113 0 19.0707 0 16.9624C0 13.7765 1.45266 11.0988 4.35797 8.92949C6.20493 7.73153 8.12534 7.13255 10.1192 7.13255C12.68 7.13255 14.7727 7.83937 16.3971 9.253V2.80261L16.3237 1.63517C16.6776 0.544219 17.2545 -0.000835016 18.0542 9.60162e-07ZM3.81805 16.7643V17.1053C3.81805 19.6459 5.19253 21.5389 7.9415 22.7845C8.57388 22.9746 9.23067 23.0767 9.8924 23.088H10.3176C12.8536 23.088 14.774 21.7584 16.0789 19.0991C16.2876 18.2966 16.392 17.6796 16.392 17.2483V16.8357C16.392 14.3077 15.0012 12.4147 12.2196 11.1565C11.3708 10.9534 10.7119 10.8518 10.2429 10.8518H9.96585C7.42993 10.8518 5.50995 12.1635 4.20592 14.7868C3.96553 15.4206 3.83448 16.0888 3.81805 16.7643V16.7643Z" fill="white"/>
<path d="M25.1694 2.9787C26.3577 3.28371 26.9519 3.85592 26.9519 4.69534V5.09677C26.9519 6.05937 26.31 6.63159 25.0262 6.81341C24.105 6.81341 23.4991 6.1762 23.2086 4.90179C23.4598 3.61888 24.1134 2.97785 25.1694 2.9787ZM25.1694 7.65324C26.3577 7.95825 26.9519 8.53046 26.9519 9.36987V25.769C26.9519 26.7554 26.3519 27.3501 25.1518 27.5532H25.0438C24.0598 27.5532 23.4539 26.9325 23.2261 25.6913V9.73563C23.3693 8.34737 24.0171 7.65324 25.1694 7.65324V7.65324Z" fill="white"/>
<path d="M39.1027 7.44684C41.6563 7.44684 43.99 8.43443 46.104 10.4096C46.2924 10.7297 46.3988 11.0927 46.4133 11.4653V11.5945C46.1944 12.8048 45.5804 13.4099 44.5713 13.4099H44.4988C44.0482 13.4099 43.2212 12.9469 42.0178 12.0209C41.182 11.5684 40.2511 11.3269 39.3039 11.3167H38.9016C36.4821 11.3167 34.6461 12.6131 33.3935 15.2059C33.1225 15.9666 32.9746 16.7669 32.9556 17.5756C32.9556 20.0814 34.2384 21.9886 36.8038 23.297C37.5847 23.598 38.4139 23.7487 39.2491 23.7415C40.6833 23.7415 42.1426 23.1058 43.6268 21.8344L44.374 21.6677H44.6477C45.6203 21.6677 46.2101 22.2707 46.4171 23.4766V23.5916C46.4171 24.7976 44.8242 26.0195 41.6385 27.2573C40.5921 27.4546 39.8139 27.5532 39.3039 27.5532H38.7565C36.0807 27.5532 33.5998 26.2822 31.3135 23.7402C29.9031 21.7289 29.1979 19.6486 29.1979 17.4994C29.1979 14.2261 30.6206 11.4859 33.4661 9.27904C35.2779 8.05757 37.1568 7.44684 39.1027 7.44684Z" fill="white"/>
<path d="M57.6433 7.44684C60.1634 7.44684 62.4386 8.39288 64.469 10.285C66.4094 12.3099 67.3797 14.5915 67.3797 17.1296C67.3797 20.7575 65.6576 23.6077 62.2135 25.6803C60.709 26.4325 59.2528 26.8085 57.8449 26.8085H57.2993C54.6742 26.8085 52.2381 25.5871 49.991 23.1443C48.6075 21.2046 47.9153 19.1988 47.9144 17.1271C47.9144 13.9764 49.311 11.3417 52.1041 9.22317C53.8875 8.03895 55.7339 7.44684 57.6433 7.44684ZM51.6845 16.9315V17.2549C51.6845 19.4947 52.774 21.2313 54.9531 22.4648C55.723 22.86 56.5778 23.0634 57.4442 23.0578H57.8424C60.165 23.0578 61.9463 21.8539 63.1862 19.4462C63.4554 18.7464 63.5962 18.0042 63.602 17.2549V16.9315C63.602 15.0745 62.7414 13.5059 61.0202 12.2255C60.0047 11.5375 58.7998 11.1797 57.5714 11.2013C55.0312 11.2013 53.1655 12.5306 51.9743 15.189C51.791 15.7522 51.6933 16.3395 51.6845 16.9315Z" fill="white"/>
<path d="M86.1813 9.60162e-07H86.5138C87.6838 0.23909 88.2684 0.782475 88.2675 1.63016V15.0752L88.3423 17.3749C88.3423 19.2684 87.5545 21.2392 85.979 23.2874C83.7498 25.6348 81.2383 26.8085 78.4447 26.8085H77.8906C75.1571 26.8085 72.6229 25.5688 70.288 23.0893C68.8482 21.113 68.1284 19.0707 68.1284 16.9624C68.1284 13.7765 69.581 11.0988 72.4863 8.92949C74.3316 7.73153 76.2515 7.13255 78.2463 7.13255C80.8071 7.13255 82.8997 7.83937 84.5242 9.253V2.80261L84.4508 1.63517C84.8047 0.544219 85.3816 -0.000835016 86.1813 9.60162e-07ZM71.9451 16.7643V17.1053C71.9451 19.6459 73.3196 21.5389 76.0686 22.7845C76.7009 22.9747 77.3577 23.0769 78.0195 23.088H78.4447C80.9806 23.088 82.901 21.7584 84.2059 19.0991C84.4147 18.2966 84.5191 17.6796 84.5191 17.2483V16.8357C84.5191 14.3077 83.1283 12.4147 80.3466 11.1565C79.4979 10.9534 78.8394 10.8518 78.3713 10.8518H78.0942C75.5583 10.8518 73.6379 12.1635 72.333 14.7868C72.0926 15.4206 71.9615 16.0888 71.9451 16.7643V16.7643Z" fill="white"/>
<path d="M93.2977 2.9787C94.4844 3.28371 95.0777 3.85592 95.0777 4.69534V5.09677C95.0777 6.05937 94.4362 6.63159 93.1533 6.81341C92.2328 6.81341 91.6273 6.1762 91.3369 4.90179C91.5896 3.61888 92.2432 2.97785 93.2977 2.9787ZM93.2977 7.65324C94.486 7.95825 95.0802 8.53258 95.0802 9.37624V25.769C95.0802 26.7554 94.4806 27.3501 93.2814 27.5532H93.1722C92.1888 27.5532 91.5834 26.9325 91.3557 25.6913V9.73563C91.5014 8.34737 92.1487 7.65324 93.2977 7.65324V7.65324Z" fill="white"/>
<path d="M100.83 7.44684C102.026 7.74541 102.624 8.30556 102.625 9.12727V9.39548C104.104 8.09722 106.103 7.44767 108.619 7.44684C111.381 7.44684 113.829 8.55548 115.965 10.7728C117.514 12.6316 118.289 14.5919 118.289 16.6536V25.1456C118.289 26.0272 117.686 26.5811 116.481 26.8073H116.295C115.09 26.5944 114.488 25.9927 114.488 25.0021V17.5294C114.488 14.4322 113.125 12.4004 110.399 11.434C109.82 11.2792 109.224 11.1954 108.623 11.1844H108.419C106.137 11.1844 104.367 12.3347 103.109 14.6351C102.789 15.3138 102.629 16.4578 102.629 18.0671V25.0757C102.629 26.0288 102.026 26.6064 100.821 26.8085H100.692C99.6804 26.8085 99.0577 26.201 98.8235 24.9859V9.48531C98.9639 8.12633 99.6327 7.44684 100.83 7.44684Z" fill="white"/>
<path d="M119.037 0V35H140V0H119.037ZM139.191 19.2164V27.3855C139.191 29.0954 137.95 30.9081 135.467 32.8235C133.574 34.0723 131.591 34.6967 129.519 34.6967C125.975 34.6967 123.046 33.1082 120.732 29.9313C120.273 29.1563 120.043 28.6064 120.044 28.2815V28.081C120.044 27.1951 120.611 26.6253 121.744 26.3715H121.996C122.852 26.3715 123.52 27.0264 124.002 28.3361C125.474 30.1906 127.312 31.1179 129.517 31.1179C132.157 31.1179 134.134 29.9296 135.448 27.553L135.556 26.8258V25.0618C134.074 26.4417 132.128 27.1317 129.718 27.1317H129.176C126.548 27.1317 124.108 25.8948 121.857 23.4209C120.471 21.4572 119.778 19.4267 119.778 17.3293C119.778 14.1414 121.176 11.4742 123.973 9.32775C125.757 8.1272 127.607 7.52692 129.525 7.52692C132.43 7.52692 134.943 8.73932 137.064 11.1641C138.535 13.1896 139.271 15.1114 139.271 16.9295L139.191 19.2164Z" fill="white"/>
<path d="M131.544 11.4553C130.719 11.2661 130.085 11.1711 129.643 11.1702H129.393C126.965 11.1702 125.13 12.4486 123.887 15.0053C123.664 15.6236 123.543 16.274 123.529 16.931V17.2521C123.529 19.7259 124.838 21.5694 127.456 22.7826C128.06 22.972 128.688 23.0739 129.32 23.0851H129.716C132.142 23.0851 133.978 21.7889 135.221 19.1965C135.412 18.4231 135.507 17.8227 135.508 17.3953V16.9845C135.507 14.524 134.186 12.681 131.544 11.4553Z" fill="white"/>
</g>
<defs>
<clipPath id="clip0_9_57">
<rect width="140" height="35" fill="white"/>
</clipPath>
</defs>
</svg>
