<svg width="100" height="100" viewBox="0 0 100 100" fill="none" xmlns="http://www.w3.org/2000/svg">
<g id="java">
<g id="java_2">
<path id="Vector" d="M36.7528 77.3356C36.7528 77.3356 32.9315 79.5578 39.4724 80.3097C47.3967 81.2137 51.4464 81.0842 60.1791 79.4313C60.1791 79.4313 62.4751 80.8708 65.6812 82.1179C46.1053 90.5077 21.3767 81.6317 36.7528 77.3356V77.3356ZM34.3606 66.3872C34.3606 66.3872 30.0746 69.5599 36.6204 70.2369C45.0853 71.1101 51.7701 71.1816 63.3376 68.9542C63.3376 68.9542 64.9376 70.5762 67.4534 71.4633C43.7847 78.3843 17.4222 72.0091 34.3606 66.3872" fill="#05E448"/>
<path id="Vector_2" d="M54.5268 47.8154C59.3504 53.3687 53.2595 58.3661 53.2595 58.3661C53.2595 58.3661 65.5071 52.0435 59.8823 44.1259C54.629 36.7427 50.6001 33.0737 72.4099 20.425C72.4099 20.425 38.1759 28.975 54.5268 47.8151" fill="#05E448"/>
<path id="Vector_3" d="M80.4175 85.4341C80.4175 85.4341 83.2454 87.764 77.303 89.5666C66.0036 92.9898 30.2732 94.0235 20.3473 89.703C16.7794 88.1511 23.4705 85.9969 25.5752 85.5447C27.7701 85.0687 29.0247 85.1576 29.0247 85.1576C25.0566 82.3621 3.37677 90.6463 18.0125 93.0185C57.9258 99.4913 90.7704 90.104 80.4175 85.4341ZM38.5901 55.0437C38.5901 55.0437 20.4156 59.3607 32.1543 60.928C37.1105 61.5916 46.9909 61.4416 56.1944 60.6703C63.7159 60.0362 71.2685 58.687 71.2685 58.687C71.2685 58.687 68.6163 59.8228 66.6976 61.133C48.2414 65.9871 12.5875 63.729 22.8518 58.7637C31.5324 54.5677 38.5904 55.0437 38.5904 55.0437H38.5901ZM71.1935 73.2677C89.9554 63.5185 81.2806 54.1496 75.2258 55.412C73.7417 55.7207 73.0801 55.9882 73.0801 55.9882C73.0801 55.9882 73.6311 55.1254 74.6833 54.7519C86.6613 50.5406 95.8735 67.1721 70.8165 73.7591C70.8165 73.7594 71.1069 73.4999 71.1935 73.2677" fill="#05E448"/>
<path id="Vector_4" d="M59.882 0.000289532C59.882 0.000289532 70.2726 10.3946 50.0271 26.3772C33.7926 39.1985 46.3251 46.5086 50.0205 54.8609C40.544 46.3109 33.5893 38.7841 38.2552 31.7791C45.103 21.4957 64.0742 16.5102 59.882 0" fill="#05E448"/>
<path id="Vector_5" d="M40.4336 99.6857C58.4425 100.839 86.0969 99.0462 86.7518 90.5249C86.7518 90.5249 85.4929 93.7555 71.8685 96.3208C56.4977 99.2132 37.54 98.8756 26.2959 97.0217C26.2962 97.0217 28.5977 98.9269 40.4339 99.6857" fill="#05E448"/>
</g>
</g>
</svg>
