<svg width="108" height="108" viewBox="0 0 108 108" fill="none" xmlns="http://www.w3.org/2000/svg">
<path fill-rule="evenodd" clip-rule="evenodd" d="M91.6025 70.4927C89.9682 72.9615 88.7287 75.9998 85.4094 75.9998C79.8204 75.9998 79.52 67.3911 73.9268 67.3911C68.337 67.3911 68.6407 75.9998 63.0534 75.9998C57.4636 75.9998 57.164 67.3911 51.5708 67.3911C45.981 67.3911 46.2839 75.9998 40.6974 75.9998C35.1076 75.9998 34.808 67.3911 29.2182 67.3911C23.625 67.3911 23.9279 75.9998 18.3422 75.9998C16.5847 75.9998 15.352 75.1493 14.3108 73.9833C10.3131 67.0316 8.01221 58.8844 8.01221 50.1727C8.01221 24.6729 27.7281 4.00098 52.0484 4.00098C76.3695 4.00098 96.0854 24.6729 96.0854 50.1735C96.0854 57.4635 94.4738 64.362 91.6025 70.4927V70.4927Z" fill="#FB70A9"/>
<path fill-rule="evenodd" clip-rule="evenodd" d="M34.462 65.9348V85.0609C34.462 88.4916 31.6768 91.2734 28.2427 91.2734C27.4263 91.2741 26.6178 91.1139 25.8633 90.8019C25.1088 90.49 24.4232 90.0324 23.8456 89.4554C23.2681 88.8784 22.8099 88.1932 22.4972 87.439C22.1845 86.6849 22.0235 85.8765 22.0234 85.06V61.9734C23.1836 59.8446 24.5083 58.0018 26.9003 58.0018C30.79 58.0018 32.151 62.8871 34.462 65.9356V65.9348ZM57.9545 66.9329V97.1763C57.9543 98.0832 57.7755 98.9812 57.4282 99.819C57.0809 100.657 56.572 101.418 55.9306 102.059C55.2891 102.7 54.5277 103.209 53.6897 103.556C52.8518 103.903 51.9537 104.081 51.0468 104.081C47.2305 104.081 44.1356 100.989 44.1356 97.1763V62.9454C45.4375 60.4369 46.7782 58.001 49.5272 58.001C53.8809 58.001 55.0647 64.1114 57.9554 66.9329H57.9545ZM80.0701 66.376V88.3329C80.0701 91.7645 77.2857 94.5463 73.8516 94.5463C70.4167 94.5463 67.6315 91.7645 67.6315 88.3329V61.3464C68.7123 59.4944 70.0016 58.001 72.1574 58.001C76.2411 58.001 77.5363 63.3841 80.0701 66.376Z" fill="#05E448"/>
<path fill-rule="evenodd" clip-rule="evenodd" d="M34.462 71.798C33.3575 70.4463 32.0522 69.444 30.1639 69.444C25.6786 69.444 24.8542 75.0937 22.0234 77.6385V53.2786C22.0235 52.4622 22.1845 51.6539 22.4971 50.8998C22.8097 50.1456 23.2679 49.4605 23.8453 48.8835C24.4228 48.3065 25.1083 47.8489 25.8627 47.5369C26.6171 47.2249 27.4255 47.0646 28.2419 47.0652C31.6768 47.0652 34.462 49.847 34.462 53.2786V71.798ZM57.9545 72.2326C56.7783 70.6674 55.4039 69.4448 53.3173 69.4448C48.3273 69.4448 47.8692 76.4353 44.1356 78.37V67.5953C44.1356 63.7816 47.2305 60.6909 51.0468 60.6909C51.9537 60.6906 52.8519 60.8689 53.69 61.2157C54.5281 61.5625 55.2896 62.071 55.9311 62.7122C56.5727 63.3533 57.0816 64.1145 57.429 64.9524C57.7763 65.7903 57.9552 66.6883 57.9554 67.5953L57.9545 72.2326ZM80.0701 71.0235C79.1116 70.081 77.9776 69.4448 76.4715 69.4448C71.6368 69.4448 71.0563 76.0067 67.6315 78.1717V56.3068C67.6315 54.6573 68.2867 53.0754 69.4531 51.9091C70.6194 50.7427 72.2013 50.0875 73.8508 50.0875C75.5002 50.0875 77.0821 50.7427 78.2485 51.9091C79.4148 53.0754 80.0701 54.6573 80.0701 56.3068V71.0235Z" fill="black" fill-opacity="0.298"/>
<path fill-rule="evenodd" clip-rule="evenodd" d="M91.6025 70.4927C89.9682 72.9615 88.7287 75.9998 85.4094 75.9998C79.8204 75.9998 79.52 67.3911 73.9268 67.3911C68.337 67.3911 68.6407 75.9998 63.0534 75.9998C57.4636 75.9998 57.164 67.3911 51.5708 67.3911C45.981 67.3911 46.2839 75.9998 40.6974 75.9998C35.1076 75.9998 34.808 67.3911 29.2182 67.3911C23.625 67.3911 23.9279 75.9998 18.3422 75.9998C16.5847 75.9998 15.352 75.1493 14.3108 73.9833C10.3131 67.0316 8.01221 58.8844 8.01221 50.1727C8.01221 24.6729 27.7281 4.00098 52.0484 4.00098C76.3695 4.00098 96.0854 24.6729 96.0854 50.1735C96.0854 57.4635 94.4738 64.362 91.6025 70.4927V70.4927Z" fill="#05E448"/>
<path fill-rule="evenodd" clip-rule="evenodd" d="M82.0742 75.0802C93.6133 57.925 93.9103 38.901 82.9677 17.9988C91.0787 26.3047 96.0855 37.6987 96.0855 50.2722C96.0855 57.5369 94.4149 64.405 91.4382 70.5155C89.7473 72.9708 88.4589 75.9998 85.0172 75.9998C83.964 76.0097 82.9344 75.688 82.0742 75.0802Z" fill="#157B34"/>
<path fill-rule="evenodd" clip-rule="evenodd" d="M49.6883 61.6925C65.0023 61.6925 71.4486 52.8162 71.4486 40.2106C71.4486 27.6033 61.7058 16.0017 49.6883 16.0017C37.6691 16.0017 27.9263 27.6033 27.9263 40.2097C27.9263 52.8171 34.3717 61.6925 49.6883 61.6925Z" fill="white"/>
<path fill-rule="evenodd" clip-rule="evenodd" d="M51.9963 31.9242C51.9963 36.8939 48.3412 40.9253 43.8356 40.9253C39.3266 40.9253 35.6748 36.8948 35.6748 31.9242C35.6748 26.9545 39.3266 22.9231 43.8356 22.9231C48.3412 22.9231 51.9963 26.9537 51.9963 31.9242Z" fill="black"/>
<path fill-rule="evenodd" clip-rule="evenodd" d="M46.5548 29.8478C46.5548 32.1419 44.7289 34.0007 42.4744 34.0007C40.2199 34.0007 38.394 32.1419 38.394 29.8478C38.394 27.5536 40.2199 25.6948 42.4744 25.6948C44.7289 25.6948 46.5548 27.5536 46.5548 29.8478Z" fill="white"/>
</svg>
