<svg width="109" height="115" viewBox="0 0 109 115" fill="none" xmlns="http://www.w3.org/2000/svg">
<path fill-rule="evenodd" clip-rule="evenodd" d="M16.3642 86.8437C12.85 86.8437 10 84.0568 10 80.6203V35.3445C10 31.908 12.85 29.1211 16.3642 29.1211C19.8783 29.1211 22.7283 31.908 22.7283 35.3445V80.6203C22.7283 84.0568 19.8783 86.8437 16.3642 86.8437Z" fill="#A8F2BE"/>
<path fill-rule="evenodd" clip-rule="evenodd" d="M92.7314 86.8434C89.2172 86.8434 86.3672 84.0565 86.3672 80.6201V35.3796C86.3672 31.9432 89.2172 29.1562 92.7314 29.1562C96.2455 29.1562 99.0955 31.9432 99.0955 35.3796V80.6201C99.0955 84.0565 96.2455 86.8434 92.7314 86.8434Z" fill="#41F276"/>
<path fill-rule="evenodd" clip-rule="evenodd" d="M54.5468 105C51.0326 105 48.1826 102.213 48.1826 98.7766V17.2234C48.1826 13.7869 51.0326 11 54.5468 11C58.061 11 60.911 13.7869 60.911 17.2234V98.7766C60.911 102.213 58.061 105 54.5468 105Z" fill="#05E448"/>
</svg>
