<svg width="100" height="100" viewBox="0 0 100 100" fill="none" xmlns="http://www.w3.org/2000/svg">
<g id="php">
<g id="php_2">
<path id="Vector" fill-rule="evenodd" clip-rule="evenodd" d="M50 75.6773C77.6143 75.6773 100 64.3324 100 50.3386C100 36.3449 77.6143 25 50 25C22.3863 25 0 36.3449 0 50.3386C0 64.3324 22.3863 75.6773 50 75.6773Z" fill="#05E448"/>
<path id="Vector_2" fill-rule="evenodd" clip-rule="evenodd" d="M60.1333 58.5283L62.6134 45.7638C63.1732 42.8828 62.7077 40.734 61.2306 39.3761C59.7995 38.0623 57.3702 37.4232 53.8042 37.4232H49.5091L50.7376 31.099C50.7607 30.9813 50.7573 30.8599 50.7279 30.7436C50.6985 30.6274 50.6437 30.5191 50.5675 30.4265C50.4912 30.3339 50.3955 30.2593 50.287 30.2081C50.1785 30.1569 50.0601 30.1304 49.9401 30.1304H44.012C43.6226 30.1304 43.2882 30.4067 43.2139 30.7888L40.5796 44.3399C40.3402 42.8151 39.7501 41.5043 38.8057 40.4226C37.0668 38.4323 34.3164 37.4232 30.6301 37.4232H19.1401C18.7508 37.4232 18.4164 37.6995 18.342 38.081L13.0112 65.511C12.9646 65.7498 13.0269 65.9952 13.1817 66.1827C13.3359 66.3707 13.5656 66.4789 13.8093 66.4789H19.784C20.1734 66.4789 20.5077 66.2026 20.5821 65.8199L21.8717 59.1855H26.3193C28.653 59.1855 30.6144 58.9328 32.1453 58.4346C33.7106 57.9255 35.1514 57.0621 36.4211 55.8735C37.4471 54.9309 38.2948 53.8752 38.9471 52.7367L37.8824 58.2169C37.8359 58.4558 37.8981 58.7024 38.0529 58.8887C38.2071 59.0767 38.4374 59.1849 38.6805 59.1849H44.6087C44.9981 59.1849 45.3324 58.9086 45.4068 58.5271L48.3325 43.4705H52.4003C54.1337 43.4705 54.6416 43.8157 54.7801 43.9639C54.9052 44.0993 55.1652 44.5763 54.8732 46.08L52.5152 58.2163C52.4926 58.334 52.4962 58.4552 52.5259 58.5713C52.5555 58.6874 52.6104 58.7955 52.6866 58.888C52.7628 58.9804 52.8585 59.0549 52.9668 59.1061C53.0752 59.1574 53.1934 59.1841 53.3133 59.1843H59.3358C59.5242 59.1847 59.7069 59.1194 59.8525 58.9997C59.998 58.88 60.0973 58.7133 60.1333 58.5283V58.5283ZM32.6489 47.9815C32.2765 49.8951 31.5751 51.2597 30.563 52.0378C29.5352 52.8305 27.8912 53.2319 25.6766 53.2319H23.0284L24.9432 43.378H28.3671C30.8822 43.378 31.8956 43.9155 32.3025 44.3659C32.8666 44.9911 32.9863 46.242 32.6489 47.9815V47.9815ZM85.1043 40.4226C83.366 38.4323 80.6156 37.4232 76.9293 37.4232H65.4393C65.0493 37.4232 64.7156 37.6995 64.6412 38.081L59.311 65.511C59.2638 65.7498 59.3261 65.9952 59.4809 66.1827C59.6357 66.3701 59.866 66.4789 60.1079 66.4789H66.0832C66.4732 66.4789 66.8069 66.2026 66.8813 65.8199L68.1709 59.1855H72.6191C74.9535 59.1855 76.913 58.9328 78.4445 58.4346C80.0104 57.9255 81.4512 57.0621 82.7203 55.8735C83.7795 54.9006 84.6508 53.8069 85.311 52.6261C85.9713 51.4453 86.4447 50.1285 86.721 48.7113C87.4 45.216 86.8564 42.4275 85.1043 40.4226V40.4226ZM79.2873 47.9815C78.9143 49.8951 78.2129 51.2597 77.202 52.0378C76.1736 52.8305 74.5296 53.2319 72.3155 53.2319H69.6668L71.5809 43.378H75.0055C77.5206 43.378 78.534 43.9155 78.9415 44.3659C79.5044 44.9911 79.6247 46.242 79.2873 47.9815V47.9815Z" fill="white"/>
<path id="Vector_3" fill-rule="evenodd" clip-rule="evenodd" d="M28.1971 42.565C30.4668 42.565 31.9802 42.984 32.7365 43.822C33.4923 44.66 33.6725 46.099 33.277 48.1371C32.8635 50.2599 32.0678 51.775 30.8888 52.6832C29.7098 53.5913 27.9154 54.0447 25.5066 54.0447H21.8717L24.1027 42.565H28.1971ZM13.6387 65.6659H19.6134L21.0313 58.3737H26.1493C28.4075 58.3737 30.2655 58.1361 31.7238 57.6615C33.1821 57.1869 34.508 56.3918 35.7009 55.2751C36.7022 54.3555 37.5123 53.3398 38.1327 52.2297C38.7524 51.1196 39.1926 49.8953 39.4531 48.5561C40.0856 45.3045 39.6085 42.7718 38.0232 40.958C36.4386 39.1436 33.9167 38.2366 30.4602 38.2366H18.9701L13.6387 65.6659V65.6659ZM43.8414 30.9438H49.7696L48.3524 38.2366H53.6343C56.956 38.2366 59.2493 38.8159 60.5105 39.9749C61.7718 41.1339 62.1496 43.0124 61.6454 45.6092L59.1653 58.3737H53.1428L55.5007 46.2368C55.7686 44.8559 55.6706 43.9145 55.2045 43.4121C54.7383 42.9103 53.7462 42.6588 52.2298 42.6588H47.4921L44.4382 58.3737H38.51L43.8414 30.9438ZM74.8356 42.565C77.1053 42.565 78.618 42.984 79.375 43.822C80.1308 44.66 80.3104 46.099 79.9149 48.1371C79.5026 50.2599 78.7069 51.775 77.5273 52.6832C76.3489 53.5913 74.5539 54.0447 72.1463 54.0447H68.5114L70.7418 42.565H74.8356V42.565ZM60.276 65.6659H66.2513L67.6685 58.3737H72.7866C75.0454 58.3737 76.9034 58.1361 78.3617 57.6615C79.82 57.1869 81.1459 56.3918 82.3388 55.2751C83.3401 54.3555 84.1502 53.3398 84.77 52.2297C85.3897 51.1196 85.8304 49.8953 86.0916 48.5561C86.7235 45.3045 86.2464 42.7718 84.6617 40.958C83.0758 39.1436 80.5546 38.2366 77.098 38.2366H65.608L60.276 65.6659V65.6659Z" fill="black"/>
</g>
</g>
</svg>
