<svg width="100" height="100" viewBox="0 0 100 100" fill="none" xmlns="http://www.w3.org/2000/svg">
<g id="wordpress">
<g id="wordpress_2">
<path id="Vector" d="M7.10743 49.9987C7.10743 66.9776 16.9741 81.6491 31.2817 88.6029L10.821 32.5424C8.36825 38.0349 7.10279 43.9834 7.10743 49.9987V49.9987ZM78.9568 47.8342C78.9568 42.5332 77.0526 38.862 75.4195 36.0046C73.2452 32.4714 71.208 29.4793 71.208 25.9461C71.208 22.0032 74.1977 18.3328 78.4099 18.3328C78.6001 18.3328 78.7805 18.3565 78.9666 18.3671C71.3345 11.3758 61.1675 7.10718 50.0006 7.10718C35.0157 7.10718 21.832 14.7955 14.1624 26.4407C15.1688 26.4709 16.118 26.4913 16.9227 26.4913C21.4092 26.4913 28.3541 25.9469 28.3541 25.9469C30.6663 25.8106 30.9389 29.2067 28.6299 29.4801C28.6299 29.4801 26.3055 29.7535 23.7198 29.889L39.3397 76.3497L48.7274 48.1974L42.0437 29.8882C39.734 29.7527 37.5458 29.4793 37.5458 29.4793C35.2344 29.3438 35.5054 25.8098 37.8168 25.9461C37.8168 25.9461 44.9003 26.4905 49.115 26.4905C53.6007 26.4905 60.5464 25.9461 60.5464 25.9461C62.8602 25.8098 63.132 29.2059 60.8214 29.4793C60.8214 29.4793 58.4929 29.7527 55.9121 29.8882L71.4129 75.9971L75.6905 61.7002C77.5456 55.7674 78.9568 51.5062 78.9568 47.8342V47.8342Z" fill="#05E448"/>
<path id="Vector_2" d="M50.7532 53.7508L37.8838 91.1462C41.8183 92.3058 45.8989 92.8945 50.0007 92.8945C54.9957 92.8945 59.7858 92.0301 64.2446 90.4631C64.125 90.2759 64.0228 90.0781 63.9393 89.8722L50.7532 53.7508ZM87.6378 29.4199C87.8222 30.7862 87.9267 32.2537 87.9267 33.8305C87.9267 38.1832 87.1138 43.0761 84.6653 49.1941L71.5632 87.0752C84.3151 79.639 92.8923 65.8237 92.8923 49.9989C92.9037 42.8059 91.0962 35.7269 87.6378 29.4199V29.4199Z" fill="#05E448"/>
<path id="Vector_3" d="M50.0005 0C22.4309 0 0 22.4292 0 49.9988C0 77.5715 22.4301 100.001 50.0005 100.001C77.5692 100.001 100.003 77.5723 100.003 49.9988C100.003 22.4292 77.5692 0 50.0005 0ZM50.0005 97.7081C23.6952 97.7081 2.29263 76.3056 2.29263 49.9988C2.29263 23.6943 23.6944 2.29345 50.0005 2.29345C76.305 2.29345 97.7059 23.6943 97.7059 49.9988C97.7059 76.3056 76.3041 97.7081 50.0005 97.7081Z" fill="#05E448"/>
</g>
</g>
</svg>
